<svg xmlns="http://www.w3.org/2000/svg" version="1.0" width="125.000000pt" height="125.000000pt" viewBox="0 0 125.000000 125.000000" preserveAspectRatio="xMidYMid meet">
<metadata fill="#f45656">
Created by potrace 1.16, written by Peter Selinger 2001-2019
</metadata>
<g transform="translate(0.000000,125.000000) scale(0.100000,-0.100000)" fill="#f45656" stroke="none">
<path d="M457 1110 c-32 -10 -76 -30 -97 -44 -22 -14 -44 -26 -49 -26 -11 0 -92 -80 -125 -124 -127 -167 -136 -453 -20 -621 67 -97 149 -166 242 -203 136 -54 215 -63 332 -38 236 50 410 236 437 466 7 66 7 68 -2 145 -14 112 -3 105 -168 105 -141 0 -144 0 -166 26 -12 14 -50 39 -84 55 -135 63 -281 24 -374 -101 -7 -9 -20 -48 -31 -88 -17 -63 -18 -79 -7 -125 18 -80 43 -123 93 -167 53 -47 104 -64 192 -64 98 0 147 18 206 78 49 48 82 115 68 138 -3 4 -31 8 -63 8 -50 0 -61 -4 -86 -30 -76 -80 -181 -80 -248 -1 -59 71 -36 180 47 220 74 36 148 22 198 -38 l27 -31 135 0 136 0 0 -62 c0 -128 -47 -225 -149 -312 -83 -70 -144 -91 -271 -90 -125 0 -188 21 -267 86 -127 107 -177 253 -142 418 15 71 48 125 116 192 134 131 340 155 514 61 26 -14 56 -38 68 -54 20 -28 25 -29 96 -29 67 0 75 2 75 19 0 25 -90 132 -127 151 -15 8 -44 25 -63 37 -19 12 -62 32 -94 43 -80 27 -264 28 -349 0z" fill="#f45656"/>
<path d="M580 640 c-26 -26 -26 -74 1 -101 17 -17 29 -20 57 -15 43 6 50 13 58 51 13 66 -69 112 -116 65z" fill="#f45656"/>
</g>
</svg>